<svg width="952" height="89" viewBox="0 0 952 89" fill="none" xmlns="http://www.w3.org/2000/svg">
<path d="M25.9648 83.1352C25.9648 84.3477 25.6238 85.2949 24.9418 85.977C24.2598 86.659 23.3125 87 22.1 87H3.79883C2.58633 87 1.63906 86.659 0.957031 85.977C0.312891 85.2949 -0.0091796 84.3477 -0.0091796 83.1352V5.61094C-0.0091796 3.07226 1.26016 1.80293 3.79883 1.80293H40.5148C50.0254 1.80293 57.7551 4.70156 63.7039 10.4988C69.6527 16.2582 72.6271 23.6848 72.6271 32.7785C72.6271 38.5379 71.2252 43.6531 68.4213 48.1242C65.6174 52.5574 61.7336 55.475 56.7699 56.877C57.9066 58.3547 59.1949 60.0598 60.6348 61.9922C62.0746 63.9246 64.1586 66.7475 66.8867 70.4607C69.6527 74.174 72.5324 78.0199 75.5258 81.9984C76.5488 83.4004 76.852 84.5939 76.4352 85.5791C76.0184 86.5264 75.0143 87 73.4229 87H53.4166C51.3326 87 49.7791 86.2611 48.7561 84.7834C46.8994 82.3963 43.6219 77.9252 38.9234 71.3701C34.2629 64.7771 31.8758 61.4049 31.7621 61.2533H25.9648V83.1352ZM25.9648 41.0197H37.1047C39.3781 41.0197 41.5758 40.243 43.6977 38.6895C45.8195 37.098 46.8805 34.9572 46.8805 32.267C46.8805 29.3115 45.99 26.9623 44.2092 25.2193C42.4662 23.4764 40.098 22.6049 37.1047 22.6049H25.9648V41.0197ZM152.993 18.7969C152.993 20.0094 152.652 20.9566 151.97 21.6387C151.288 22.2828 150.341 22.6049 149.128 22.6049H111.048V33.9152H144.354C145.567 33.9152 146.514 34.2562 147.196 34.9383C147.878 35.6203 148.219 36.5676 148.219 37.7801V50.9092C148.219 52.1217 147.878 53.0689 147.196 53.751C146.514 54.433 145.567 54.774 144.354 54.774H111.048V66.1412H149.128C150.341 66.1412 151.288 66.4822 151.97 67.1643C152.652 67.8463 152.993 68.7936 152.993 70.0061V83.1352C152.993 84.3477 152.652 85.2949 151.97 85.977C151.288 86.659 150.341 87 149.128 87H88.9391C87.7266 87 86.7793 86.659 86.0973 85.977C85.4531 85.2949 85.1311 84.3477 85.1311 83.1352V5.61094C85.1311 3.07226 86.4004 1.80293 88.9391 1.80293H149.128C150.341 1.80293 151.288 2.14394 151.97 2.82598C152.652 3.47012 152.993 4.39844 152.993 5.61094V18.7969ZM192.324 66.1412H229.04C230.252 66.1412 231.18 66.4822 231.825 67.1643C232.507 67.8463 232.848 68.7936 232.848 70.0061V83.1352C232.848 84.3477 232.507 85.2949 231.825 85.977C231.18 86.659 230.252 87 229.04 87H169.987C168.775 87 167.827 86.659 167.145 85.977C166.501 85.2949 166.179 84.3477 166.179 83.1352V5.61094C166.179 3.07226 167.448 1.80293 169.987 1.80293H188.516C191.054 1.80293 192.324 3.07226 192.324 5.61094V66.1412ZM283.602 1.80293C285.762 1.80293 287.278 2.69336 288.149 4.47422L329.469 82.4531C330.189 83.7793 330.302 84.8781 329.81 85.7496C329.317 86.5832 328.313 87 326.797 87H306.45C304.328 87 302.813 86.0717 301.903 84.215L297.356 74.8939H268.484L263.937 84.215C263.028 86.0717 261.512 87 259.39 87H239.043C237.527 87 236.523 86.5832 236.03 85.7496C235.538 84.8781 235.652 83.7793 236.371 82.4531L277.691 4.47422C278.563 2.69336 280.078 1.80293 282.238 1.80293H283.602ZM275.929 56.877H289.911L282.92 39.883L275.929 56.877ZM342.882 54.5467L313.271 6.46348C312.475 5.17519 312.342 4.07637 312.873 3.16699C313.403 2.25762 314.426 1.80293 315.942 1.80293H336.914C338.96 1.80293 340.476 2.69336 341.461 4.47422L356.238 31.4713L370.675 4.47422C371.546 2.69336 373.1 1.80293 375.335 1.80293H396.763C398.278 1.80293 399.282 2.25762 399.775 3.16699C400.305 4.07637 400.154 5.17519 399.32 6.46348L369.14 54.5467V83.1352C369.14 84.3477 368.799 85.2949 368.117 85.977C367.473 86.659 366.545 87 365.332 87H346.69C345.478 87 344.53 86.659 343.848 85.977C343.204 85.2949 342.882 84.3477 342.882 83.1352V54.5467ZM951.148 65.269C951.148 71.9178 948.839 77.4468 944.219 81.856C939.6 86.2651 933.896 88.4697 927.108 88.4697C920.459 88.4697 914.86 86.2651 910.311 81.856C905.762 77.4468 903.487 71.9178 903.487 65.269C903.487 59.0402 905.762 53.7212 910.311 49.312C914.93 44.9028 920.529 42.6982 927.108 42.6982C933.826 42.6982 939.495 44.9028 944.114 49.312C948.804 53.6512 951.148 58.9702 951.148 65.269Z" fill="#3B82F6"/>
<path d="M411.654 87C410.441 87 409.494 86.659 408.812 85.977C408.168 85.2949 407.845 84.3477 407.845 83.1352V5.61094C407.845 3.07226 409.115 1.80293 411.654 1.80293H443.936C452.613 1.80293 460.286 3.5459 466.955 7.03183C473.624 10.5178 478.796 15.5004 482.471 21.9797C486.184 28.4211 488.041 35.8855 488.041 44.373C488.041 52.8984 486.203 60.4008 482.528 66.8801C478.853 73.3215 473.68 78.2852 467.012 81.7711C460.343 85.257 452.651 87 443.936 87H411.654ZM433.933 66.1412H442.856C445.016 66.1412 447.157 65.7434 449.279 64.9477C451.439 64.152 453.485 62.9584 455.417 61.367C457.35 59.7377 458.922 57.4643 460.135 54.5467C461.347 51.6291 461.953 48.2758 461.953 44.4867C461.953 41.3797 461.537 38.5568 460.703 36.0182C459.907 33.4416 458.846 31.3387 457.52 29.7094C456.232 28.0801 454.735 26.716 453.03 25.6172C451.325 24.4805 449.62 23.6848 447.915 23.2301C446.21 22.7375 444.524 22.4912 442.856 22.4912H433.933V66.1412ZM522.597 1.80293C523.81 1.80293 524.757 2.14394 525.439 2.82598C526.121 3.47012 526.462 4.39844 526.462 5.61094V83.1352C526.462 84.3477 526.121 85.2949 525.439 85.977C524.757 86.659 523.81 87 522.597 87H504.353C503.14 87 502.193 86.659 501.511 85.977C500.829 85.2949 500.488 84.3477 500.488 83.1352V5.61094C500.488 4.39844 500.829 3.47012 501.511 2.82598C502.193 2.14394 503.14 1.80293 504.353 1.80293H522.597ZM623.993 38.4621C625.167 38.4621 626.133 38.7842 626.891 39.4283C627.649 40.0725 628.047 41.0008 628.085 42.2133C628.161 44.7141 628.047 47.7264 627.744 51.2502C627.213 56.4033 625.773 61.2533 623.424 65.8002C621.075 70.3471 618.025 74.2877 614.274 77.6221C610.56 80.9564 606.07 83.5898 600.804 85.5223C595.575 87.4547 589.967 88.4209 583.98 88.4209C577.88 88.4209 572.007 87.2652 566.361 84.9539C560.753 82.6047 555.903 79.4598 551.811 75.5191C547.757 71.5785 544.517 66.899 542.092 61.4807C539.667 56.0623 538.455 50.3977 538.455 44.4867C538.455 38.5758 539.667 32.9111 542.092 27.4928C544.517 22.0365 547.757 17.357 551.811 13.4543C555.903 9.51367 560.753 6.36875 566.361 4.01953C572.007 1.67031 577.88 0.495702 583.98 0.495702C591.748 0.495702 598.909 2.21973 605.464 5.66777C612.019 9.11582 617.551 13.8711 622.06 19.9336C622.818 20.9945 623.064 21.9986 622.799 22.9459C622.572 23.8553 621.89 24.651 620.753 25.333C619.124 26.2045 616.528 27.5117 612.966 29.2547C609.405 30.9598 607.34 31.9639 606.771 32.267C604.839 33.3279 603.096 32.9111 601.542 31.0166C596.882 25.2572 591.028 22.3775 583.98 22.3775C578.107 22.3775 573.39 24.4994 569.828 28.7432C566.304 32.9869 564.542 38.2348 564.542 44.4867C564.542 50.3598 566.266 55.4182 569.714 59.6619C573.2 63.8678 577.69 66.198 583.184 66.6527C587.769 67.0316 591.918 66.2738 595.631 64.3793C599.383 62.4469 601.675 59.624 602.509 55.9107H582.446C579.907 55.9107 578.638 54.6414 578.638 52.1027V42.327C578.638 41.1145 578.96 40.1672 579.604 39.4852C580.286 38.8031 581.233 38.4621 582.446 38.4621H623.993ZM661.618 1.80293C662.83 1.80293 663.778 2.14394 664.46 2.82598C665.142 3.47012 665.483 4.39844 665.483 5.61094V83.1352C665.483 84.3477 665.142 85.2949 664.46 85.977C663.778 86.659 662.83 87 661.618 87H643.374C642.161 87 641.214 86.659 640.532 85.977C639.85 85.2949 639.509 84.3477 639.509 83.1352V5.61094C639.509 4.39844 639.85 3.47012 640.532 2.82598C641.214 2.14394 642.161 1.80293 643.374 1.80293H661.618ZM740.165 1.80293C741.378 1.80293 742.325 2.14394 743.007 2.82598C743.689 3.47012 744.03 4.39844 744.03 5.61094V18.7969C744.03 20.0094 743.689 20.9566 743.007 21.6387C742.325 22.2828 741.378 22.6049 740.165 22.6049H721.921V83.1352C721.921 84.3477 721.58 85.2949 720.898 85.977C720.216 86.659 719.269 87 718.056 87H699.812C698.599 87 697.652 86.659 696.97 85.977C696.288 85.2949 695.947 84.3477 695.947 83.1352V22.6049H677.703C676.49 22.6049 675.543 22.2828 674.861 21.6387C674.179 20.9566 673.838 20.0094 673.838 18.7969V5.61094C673.838 4.39844 674.179 3.47012 674.861 2.82598C675.543 2.14394 676.49 1.80293 677.703 1.80293H740.165ZM781.371 1.80293C783.531 1.80293 785.047 2.69336 785.918 4.47422L827.238 82.4531C827.958 83.7793 828.071 84.8781 827.579 85.7496C827.086 86.5832 826.082 87 824.567 87H804.219C802.097 87 800.582 86.0717 799.672 84.215L795.126 74.8939H766.253L761.706 84.215C760.797 86.0717 759.281 87 757.159 87H736.812C735.296 87 734.292 86.5832 733.8 85.7496C733.307 84.8781 733.421 83.7793 734.141 82.4531L775.46 4.47422C776.332 2.69336 777.847 1.80293 780.007 1.80293H781.371ZM773.698 56.877H787.68L780.689 39.883L773.698 56.877ZM859.464 66.1412H896.18C897.392 66.1412 898.321 66.4822 898.965 67.1643C899.647 67.8463 899.988 68.7936 899.988 70.0061V83.1352C899.988 84.3477 899.647 85.2949 898.965 85.977C898.321 86.659 897.392 87 896.18 87H837.127C835.915 87 834.968 86.659 834.286 85.977C833.641 85.2949 833.319 84.3477 833.319 83.1352V5.61094C833.319 3.07226 834.589 1.80293 837.127 1.80293H855.656C858.195 1.80293 859.464 3.07226 859.464 5.61094V66.1412Z" fill="white"/>
</svg>
