<svg width="241" height="218" viewBox="0 0 241 218" fill="none" xmlns="http://www.w3.org/2000/svg">
<path d="M18.5001 0.5H141.5V36.5H18.5001C8.559 36.5 0.500122 28.4411 0.500122 18.5C0.500122 8.55887 8.559 0.5 18.5001 0.5ZM144.468 114.447H144.484H162.903L184.05 135.594C173.097 143.046 160.039 147.668 145.942 148.398L142.5 144.956V114.447H144.468ZM184.887 135.017L163.464 113.594L163.317 113.447H163.11H151.034C167.942 109.328 180.5 93.9029 180.5 75.5135C180.5 54.1423 163.539 36.7745 142.5 36.5032V0.501632C183.418 0.768746 216.5 33.7997 216.5 74.5C216.5 99.5082 204.01 121.621 184.887 135.017ZM146.89 149.345C160.899 148.456 173.869 143.771 184.77 136.314L234.643 186.187C241.672 193.216 241.672 204.613 234.643 211.643C227.613 218.672 216.217 218.672 209.187 211.643L146.89 149.345ZM141.5 114.447V143.956L111.991 114.447H141.5ZM63.163 94.7071L146.971 178.515L121.515 203.971L37.7071 120.163L63.163 94.7071ZM122.222 204.678L147.678 179.222L154.865 186.409C161.894 193.439 161.894 204.836 154.865 211.865C147.836 218.894 136.439 218.894 129.409 211.865L122.222 204.678ZM37.1042 119.352L4.40611 63.5324C4.72491 63.1685 5.06733 62.8027 5.43508 62.435C5.8028 62.0672 6.16856 61.7248 6.53248 61.4061L62.3517 94.1042L37.1042 119.352ZM34.601 117.057L0.500022 82.9557L0.5 71.4681C0.909652 69.124 1.8235 66.7686 3.7263 64.3504L34.601 117.057ZM0.5 84.3699L36.2929 120.163L36.5 120.37V198.5C36.5 208.441 28.4411 216.5 18.5 216.5C8.55887 216.5 0.5 208.441 0.5 198.5V84.3699ZM141.5 57.5L141.5 93.5L63.3702 93.5L63.163 93.2929L27.3701 57.4999L141.5 57.5ZM25.9559 57.4999L60.057 91.601L7.35039 60.7263C9.76857 58.8235 12.1239 57.9096 14.4679 57.5L25.9559 57.4999ZM142.5 93.4928L142.5 57.5072C151.922 57.7793 159.5 65.7183 159.5 75.5C159.5 84.2081 153.491 91.4594 145.525 93.1348C144.544 93.341 143.533 93.463 142.5 93.4928Z" fill="#3B82F6" stroke="#3B82F6"/>
</svg>
