<svg width="93" height="93" viewBox="0 0 93 93" fill="none" xmlns="http://www.w3.org/2000/svg">
<path d="M53.4043 40.2673L51.7143 43.1257L54.6833 41.6392C59.8803 39.0375 66.084 37.9844 71.8814 38.5484C77.686 39.113 82.9868 41.2857 86.4716 45.0236C90.372 49.2053 91.5649 54.3984 90.6616 59.63C89.7543 64.8835 86.7241 70.1817 82.1658 74.4329C69.5936 86.1563 54.8816 90.9235 41.7332 91.0632C28.5497 91.203 17.0409 86.6968 10.8092 80.014C4.57745 73.3312 0.884997 61.5358 1.94398 48.3946C3.00094 35.2881 8.78322 20.9443 21.3544 9.22098C25.9137 4.96965 31.4099 2.31667 36.7139 1.77796C41.9953 1.24146 47.0929 2.79424 50.9924 6.97639C54.4888 10.7256 56.5978 16.5185 57.063 22.7016C57.5275 28.8768 56.34 35.3028 53.4043 40.2673Z" stroke="#3B82F6" stroke-width="3"/>
</svg>
