<svg width="303" height="87" viewBox="0 0 303 87" fill="none" xmlns="http://www.w3.org/2000/svg">
<path d="M2 44.7189C17.0886 101.443 148.877 100.607 148.877 31.9689C148.877 15.6328 137.096 2.39014 122.566 2.39014C108.035 2.39014 96.2564 15.6328 96.2564 31.9689C96.2564 61.1185 124.082 84.7491 158.409 84.7491C192.726 84.7491 220.551 61.1185 220.551 31.9689C220.551 15.6328 208.78 2.39014 194.251 2.39014C179.713 2.39014 167.942 15.6328 167.942 31.9689C167.942 61.1185 195.767 84.7491 230.083 84.7491C264.41 84.7491 292.235 61.1185 292.235 31.9689C292.235 15.6328 280.453 2.39014 265.925 2.39014C251.397 2.39014 239.616 15.6328 239.616 31.9689C239.616 61.1185 267.617 84.7491 302.148 84.7491" stroke="#3B82F6" stroke-width="3"/>
</svg>
