<svg width="91" height="83" viewBox="0 0 91 83" fill="none" xmlns="http://www.w3.org/2000/svg">
<path d="M31.798 3L3 7.99335M31.798 3L36.8346 31.6629M31.798 3L57.3807 20.8965M3 7.99335L36.8346 31.6629M3 7.99335L15.6535 80M36.8346 31.6629L54.1647 43.7863M36.8346 31.6629L57.3807 20.8965M36.8346 31.6629L15.6535 80M57.3807 20.8965L82.9627 38.7929M57.3807 20.8965L54.1647 43.7863M82.9627 38.7929L88 67.4558M82.9627 38.7929C69.9976 40.7282 54.1647 43.7863 54.1647 43.7863M88 67.4558L54.1647 43.7863M88 67.4558L15.6535 80M54.1647 43.7863L26.796 69.5224L15.6535 80" stroke="#3B82F6" stroke-width="4"/>
</svg>
