<svg width="35" height="35" viewBox="0 0 35 35" fill="none" xmlns="http://www.w3.org/2000/svg">
<mask id="path-1-inside-1_16_78" fill="white">
<path fill-rule="evenodd" clip-rule="evenodd" d="M1.95509 20.0379C0.604052 18.2423 0.101529 16.1666 0.581956 13.9C1.06216 11.6344 2.36264 9.94163 4.32465 8.84846C6.11212 7.85249 8.40867 7.37365 11.0742 7.32609C12.1806 4.96844 13.5166 3.1155 15.1056 1.9195C16.8539 0.60355 18.8684 0.116705 21.0631 0.581908C23.2569 1.04689 24.9002 2.30825 25.9644 4.21907C26.9315 5.95544 27.4013 8.1891 27.4569 10.7905C29.8856 11.9163 31.7925 13.2861 33.0205 14.9237C34.3684 16.7213 34.8615 18.7973 34.3811 21.064C33.9004 23.3318 32.6065 25.0297 30.644 26.1258C28.8557 27.1246 26.5551 27.6025 23.8761 27.6452C22.7709 29.9892 21.4358 31.8382 19.8497 33.0346C18.1042 34.3511 16.0918 34.8458 13.8991 34.381C11.7055 33.916 10.0663 32.6466 9.00518 30.7338C8.04071 28.9954 7.57093 26.7619 7.5124 24.1689C5.09292 23.0439 3.18612 21.674 1.95509 20.0379ZM3.48889 18.8839C4.54203 20.2837 6.32505 21.5669 8.849 22.6655L9.42714 22.9172L9.42563 23.5478C9.41922 26.2292 9.86042 28.3189 10.6836 29.8027C11.4868 31.2504 12.6704 32.1585 14.2971 32.5033C15.9232 32.848 17.3728 32.4986 18.6938 31.5021C20.0476 30.481 21.2983 28.7516 22.3801 26.3002L22.6351 25.7226L23.2665 25.7281C26.0316 25.7521 28.1812 25.3028 29.708 24.4501C31.1983 23.6177 32.1402 22.3793 32.5033 20.666C32.8663 18.9535 32.5083 17.4401 31.4848 16.0752C30.4363 14.6769 28.6555 13.3944 26.1207 12.2948L25.5406 12.0432L25.5429 11.4108C25.5527 8.71951 25.1113 6.63218 24.2875 5.153C23.484 3.71022 22.2979 2.80572 20.6651 2.45964C19.0316 2.1134 17.58 2.45935 16.2598 3.45306C14.9063 4.47187 13.6557 6.20228 12.5727 8.66836L12.3188 9.24653L11.6873 9.24218C8.93679 9.22319 6.78818 9.67308 5.25893 10.5251C3.76566 11.3572 2.82123 12.5923 2.45968 14.298C2.09798 16.0045 2.46056 17.5171 3.48889 18.8839Z"/>
</mask>
<path d="M1.95509 20.0379L4.35234 18.2342L4.35231 18.2342L1.95509 20.0379ZM0.581956 13.9L3.51675 14.5221L0.581956 13.9ZM4.32465 8.84846L5.78481 11.4691L5.78485 11.4691L4.32465 8.84846ZM11.0742 7.32609L11.1277 10.3256L12.9961 10.2923L13.79 8.60057L11.0742 7.32609ZM15.1056 1.9195L16.9097 4.31642L16.9097 4.31641L15.1056 1.9195ZM21.0631 0.581908L20.4411 3.51671L21.0631 0.581908ZM25.9644 4.21907L23.3435 5.67876L23.3435 5.67878L25.9644 4.21907ZM27.4569 10.7905L24.4576 10.8546L24.4975 12.7255L26.1953 13.5124L27.4569 10.7905ZM33.0205 14.9237L30.6203 16.7234L30.6203 16.7235L33.0205 14.9237ZM30.644 26.1258L32.1068 28.745L32.1068 28.745L30.644 26.1258ZM23.8761 27.6452L23.8283 24.6456L21.9597 24.6755L21.1627 26.3657L23.8761 27.6452ZM19.8497 33.0346L18.0431 30.6395L18.0431 30.6395L19.8497 33.0346ZM9.00518 30.7338L11.6286 29.2785L11.6285 29.2784L9.00518 30.7338ZM7.5124 24.1689L10.5116 24.1012L10.4695 22.2354L8.77728 21.4485L7.5124 24.1689ZM3.48889 18.8839L5.88618 17.0803L5.88615 17.0802L3.48889 18.8839ZM8.849 22.6655L10.0467 19.9149L10.0463 19.9148L8.849 22.6655ZM9.42714 22.9172L12.4271 22.9244L12.4319 20.9535L10.6248 20.1667L9.42714 22.9172ZM9.42563 23.5478L6.42564 23.5406L6.42564 23.5406L9.42563 23.5478ZM10.6836 29.8027L13.307 28.3473L13.3069 28.3472L10.6836 29.8027ZM18.6938 31.5021L16.8873 29.107L16.8871 29.1071L18.6938 31.5021ZM22.3801 26.3002L19.6356 25.0888L19.6355 25.089L22.3801 26.3002ZM22.6351 25.7226L22.6613 22.7227L20.6876 22.7054L19.8906 24.5111L22.6351 25.7226ZM23.2665 25.7281L23.2403 28.728L23.2404 28.728L23.2665 25.7281ZM29.708 24.4501L31.1708 27.0693L31.1709 27.0692L29.708 24.4501ZM31.4848 16.0752L29.0846 17.8749L29.0846 17.875L31.4848 16.0752ZM26.1207 12.2948L27.3146 9.5426L27.3143 9.54245L26.1207 12.2948ZM25.5406 12.0432L22.5406 12.0319L22.5331 14.009L24.347 14.7956L25.5406 12.0432ZM25.5429 11.4108L28.5429 11.4221L28.5429 11.4218L25.5429 11.4108ZM24.2875 5.153L26.9085 3.69332L26.9085 3.69327L24.2875 5.153ZM16.2598 3.45306L18.0639 5.84998L18.064 5.84994L16.2598 3.45306ZM12.5727 8.66836L15.3195 9.87464L15.3195 9.87462L12.5727 8.66836ZM12.3188 9.24653L12.2981 12.2465L14.2719 12.26L15.0656 10.4528L12.3188 9.24653ZM11.6873 9.24218L11.6666 12.2421L11.6667 12.2421L11.6873 9.24218ZM5.25893 10.5251L3.79879 7.90443L3.79865 7.9045L5.25893 10.5251ZM4.35231 18.2342C3.50553 17.1088 3.22194 15.913 3.51675 14.5221L-2.35284 13.278C-3.01888 16.4203 -2.29742 19.3758 -0.442128 21.8416L4.35231 18.2342ZM3.51675 14.5221C3.81144 13.1318 4.55526 12.1542 5.78481 11.4691L2.86449 6.22778C0.17002 7.72906 -1.68711 10.1371 -2.35284 13.278L3.51675 14.5221ZM5.78485 11.4691C6.99311 10.7959 8.75113 10.368 11.1277 10.3256L11.0206 4.32657C8.06622 4.37929 5.23114 4.9091 2.86445 6.2278L5.78485 11.4691ZM13.79 8.60057C14.7755 6.50047 15.8477 5.11577 16.9097 4.31642L13.3015 -0.477415C11.1855 1.11524 9.58559 3.4364 8.35833 6.05162L13.79 8.60057ZM16.9097 4.31641C17.9891 3.50391 19.1238 3.2375 20.4411 3.51671L21.6852 -2.35289C18.6129 -3.00409 15.7187 -2.29681 13.3014 -0.477399L16.9097 4.31641ZM20.4411 3.51671C21.7578 3.79579 22.6865 4.49918 23.3435 5.67876L28.5854 2.75938C27.1139 0.117327 24.756 -1.70201 21.6852 -2.35289L20.4411 3.51671ZM23.3435 5.67878C23.9897 6.83903 24.4081 8.53776 24.4576 10.8546L30.4562 10.7265C30.3945 7.84044 29.8733 5.07185 28.5853 2.75936L23.3435 5.67878ZM26.1953 13.5124C28.3612 14.5163 29.7929 15.62 30.6203 16.7234L35.4207 13.124C33.7922 10.9521 31.4101 9.31628 28.7185 8.06871L26.1953 13.5124ZM30.6203 16.7235C31.4613 17.845 31.7431 19.0417 31.4463 20.442L37.3159 21.6861C37.9799 18.553 37.2754 15.5976 35.4207 13.124L30.6203 16.7235ZM31.4463 20.442C31.1493 21.8428 30.4058 22.8226 29.1811 23.5067L32.1068 28.745C34.8071 27.2368 36.6514 24.8207 37.3159 21.6861L31.4463 20.442ZM29.1811 23.5066C27.9759 24.1797 26.2177 24.6075 23.8283 24.6456L23.924 30.6449C26.8925 30.5975 29.7355 30.0694 32.1068 28.745L29.1811 23.5066ZM21.1627 26.3657C20.1785 28.453 19.1064 29.8375 18.0431 30.6395L21.6562 35.4296C23.7652 33.8388 25.3633 31.5254 26.5896 28.9248L21.1627 26.3657ZM18.0431 30.6395C16.9607 31.4559 15.828 31.7232 14.5212 31.4462L13.2771 37.3158C16.3555 37.9683 19.2477 37.2463 21.6562 35.4296L18.0431 30.6395ZM14.5212 31.4462C13.2138 31.1691 12.2867 30.4648 11.6286 29.2785L6.38182 32.1891C7.84596 34.8284 10.1971 36.663 13.2771 37.3158L14.5212 31.4462ZM11.6285 29.2784C10.9818 28.1128 10.5638 26.4106 10.5116 24.1012L4.51316 24.2366C4.5781 27.1132 5.0996 29.8781 6.38188 32.1893L11.6285 29.2784ZM8.77728 21.4485C6.61976 20.4453 5.18466 19.3405 4.35234 18.2342L-0.442157 21.8416C1.18758 24.0076 3.56608 25.6424 6.24752 26.8892L8.77728 21.4485ZM1.09161 20.6875C2.57153 22.6545 4.8665 24.2039 7.65171 25.4162L10.0463 19.9148C7.78361 18.9299 6.51254 17.9128 5.88618 17.0803L1.09161 20.6875ZM7.65131 25.416L8.22945 25.6678L10.6248 20.1667L10.0467 19.9149L7.65131 25.416ZM6.42715 22.91L6.42564 23.5406L12.4256 23.555L12.4271 22.9244L6.42715 22.91ZM6.42564 23.5406C6.41856 26.5015 6.89639 29.1602 8.06033 31.2581L13.3069 28.3472C12.8245 27.4776 12.4199 25.957 12.4256 23.555L6.42564 23.5406ZM8.0603 31.258C9.26689 33.4329 11.1628 34.9056 13.6751 35.4381L14.9192 29.5685C14.1779 29.4114 13.7068 29.0679 13.307 28.3473L8.0603 31.258ZM13.6751 35.4381C16.1862 35.9703 18.5156 35.3943 20.5004 33.8971L16.8871 29.1071C16.23 29.6028 15.6603 29.7256 14.9192 29.5685L13.6751 35.4381ZM20.5003 33.8972C22.4149 32.4532 23.9301 30.2186 25.1248 27.5114L19.6355 25.089C18.6666 27.2846 17.6804 28.5088 16.8873 29.107L20.5003 33.8972ZM25.1247 27.5117L25.3796 26.934L19.8906 24.5111L19.6356 25.0888L25.1247 27.5117ZM22.6089 28.7224L23.2403 28.728L23.2927 22.7282L22.6613 22.7227L22.6089 28.7224ZM23.2404 28.728C26.2907 28.7545 29.0201 28.2705 31.1708 27.0693L28.2452 21.8309C27.3423 22.3352 25.7725 22.7498 23.2926 22.7282L23.2404 28.728ZM31.1709 27.0692C33.3994 25.8245 34.8913 23.8678 35.4381 21.2881L29.5685 20.044C29.389 20.8908 28.9973 21.4108 28.2451 21.8309L31.1709 27.0692ZM35.4381 21.2881C35.9847 18.7096 35.4157 16.3168 33.885 14.2754L29.0846 17.875C29.6009 18.5635 29.748 19.1975 29.5685 20.044L35.4381 21.2881ZM33.885 14.2754C32.4078 12.3054 30.1113 10.7558 27.3146 9.5426L24.9268 15.047C27.1998 16.033 28.4648 17.0483 29.0846 17.8749L33.885 14.2754ZM27.3143 9.54245L26.7341 9.29087L24.347 14.7956L24.9271 15.0471L27.3143 9.54245ZM28.5405 12.0545L28.5429 11.4221L22.543 11.3996L22.5406 12.0319L28.5405 12.0545ZM28.5429 11.4218C28.5537 8.45043 28.0763 5.79019 26.9085 3.69332L21.6666 6.61267C22.1464 7.47417 22.5517 8.9886 22.543 11.3999L28.5429 11.4218ZM26.9085 3.69327C25.6973 1.51869 23.7964 0.0566779 21.2872 -0.475162L20.0431 5.39444C20.7995 5.55476 21.2706 5.90176 21.6666 6.61272L26.9085 3.69327ZM21.2872 -0.475162C18.7769 -1.00725 16.4454 -0.441461 14.4557 1.05618L18.064 5.84994C18.7147 5.36016 19.2863 5.23404 20.0431 5.39444L21.2872 -0.475162ZM14.4557 1.05615C12.5372 2.50017 11.0214 4.73974 9.82589 7.4621L15.3195 9.87462C16.2899 7.66483 17.2753 6.44356 18.0639 5.84998L14.4557 1.05615ZM9.82589 7.46208L9.57199 8.04025L15.0656 10.4528L15.3195 9.87464L9.82589 7.46208ZM12.3394 6.2466L11.708 6.24226L11.6667 12.2421L12.2981 12.2465L12.3394 6.2466ZM11.708 6.24226C8.67248 6.22129 5.94805 6.70694 3.79879 7.90443L6.71907 13.1458C7.6283 12.6392 9.2011 12.2251 11.6666 12.2421L11.708 6.24226ZM3.79865 7.9045C1.57251 9.14497 0.071834 11.0955 -0.475115 13.676L5.39448 14.9201C5.57062 14.0891 5.9588 13.5694 6.71921 13.1457L3.79865 7.9045ZM-0.475115 13.676C-1.02231 16.2576 -0.44126 18.6501 1.09164 20.6875L5.88615 17.0802C5.36238 16.3841 5.21827 15.7514 5.39448 14.9201L-0.475115 13.676Z" fill="#3B82F6" mask="url(#path-1-inside-1_16_78)"/>
</svg>
