<svg width="98" height="56" viewBox="0 0 98 56" fill="none" xmlns="http://www.w3.org/2000/svg">
<path fill-rule="evenodd" clip-rule="evenodd" d="M81.6212 34.7218C86.8154 30.9223 93.2443 29.7738 97.9878 29.7738L98 26.1609C93.2576 26.1294 86.8176 24.9942 81.6119 21.2168C76.5058 17.5115 72.36 11.1036 72.36 0L68.7309 3.15849e-07C68.7309 12.1434 73.3415 19.6862 79.4741 24.1364C80.5331 24.9048 81.6304 25.5761 82.7482 26.1609H0L3.17281e-07 29.7738H82.7389C81.6233 30.3623 80.5286 31.0377 79.4723 31.8103C73.3535 36.2862 68.7608 43.8601 68.7608 56H72.39C72.39 44.8928 76.5238 38.4505 81.6212 34.7218Z" fill="#3B82F6"/>
</svg>
