<svg width="601" height="12" viewBox="0 0 601 12" fill="none" xmlns="http://www.w3.org/2000/svg">
<mask id="path-1-inside-1_16_77" fill="white">
<path fill-rule="evenodd" clip-rule="evenodd" d="M24.4025 0C27.6852 0 30.7858 1.53859 33.4796 4.25141C35.635 6.42208 37.7725 7.32523 39.728 7.32523C41.6835 7.32523 43.821 6.42208 45.9764 4.25141C48.6702 1.53859 51.7709 0 55.0534 0C58.336 0 61.4367 1.53859 64.1305 4.25141C66.2859 6.42208 68.4234 7.32523 70.3789 7.32523C72.3344 7.32523 74.4719 6.42208 76.6274 4.25141C79.3211 1.53859 82.4218 0 85.7044 0C88.987 0 92.0877 1.53859 94.7815 4.25141C96.9369 6.42208 99.0743 7.32523 101.03 7.32523C102.986 7.32523 105.123 6.42208 107.279 4.25141C109.972 1.53859 113.072 0 116.355 0C119.637 0 122.738 1.53859 125.432 4.25141C127.588 6.42208 129.725 7.32523 131.68 7.32523C133.636 7.32523 135.774 6.42208 137.93 4.25141C140.623 1.53859 143.723 0 147.007 0C150.289 0 153.389 1.53859 156.083 4.25141C158.239 6.42208 160.376 7.32523 162.332 7.32523C164.287 7.32523 166.425 6.42208 168.58 4.25141C171.274 1.53859 174.375 0 177.657 0C180.94 0 184.041 1.53859 186.735 4.25141C188.889 6.42208 191.027 7.32523 192.983 7.32523C194.938 7.32523 197.075 6.42208 199.231 4.25141C201.925 1.53859 205.026 0 208.308 0C211.591 0 214.692 1.53859 217.385 4.25141C219.541 6.42208 221.678 7.32523 223.634 7.32523C225.589 7.32523 227.726 6.42208 229.882 4.25141C232.576 1.53859 235.677 0 238.959 0C242.242 0 245.343 1.53859 248.036 4.25141C250.192 6.42208 252.329 7.32523 254.284 7.32523C256.24 7.32523 258.378 6.42208 260.533 4.25141C263.226 1.53859 266.327 0 269.61 0C272.892 0 275.993 1.53859 278.687 4.25141C280.843 6.42208 282.98 7.32523 284.935 7.32523C286.891 7.32523 289.029 6.42208 291.184 4.25141C293.878 1.53859 296.978 0 300.261 0C303.543 0 306.644 1.53859 309.338 4.25141C311.493 6.42208 313.631 7.32523 315.586 7.32523C317.542 7.32523 319.68 6.42208 321.835 4.25141C324.529 1.53859 327.629 0 330.912 0C334.195 0 337.295 1.53859 339.989 4.25141C342.144 6.42208 344.282 7.32523 346.238 7.32523C348.193 7.32523 350.33 6.42208 352.486 4.25141C355.18 1.53859 358.281 0 361.563 0C364.846 0 367.947 1.53859 370.64 4.25141C372.795 6.42208 374.932 7.32523 376.888 7.32523C378.844 7.32523 380.981 6.42208 383.137 4.25141C385.83 1.53859 388.931 0 392.214 0C395.496 0 398.597 1.53859 401.291 4.25141C403.447 6.42208 405.583 7.32523 407.539 7.32523C409.494 7.32523 411.632 6.42208 413.787 4.25141C416.481 1.53859 419.582 0 422.865 0C426.147 0 429.248 1.53859 431.942 4.25141C434.097 6.42208 436.235 7.32523 438.19 7.32523C440.146 7.32523 442.284 6.42208 444.438 4.25141C447.132 1.53859 450.233 0 453.515 0C456.798 0 459.899 1.53859 462.593 4.25141C464.748 6.42208 466.886 7.32523 468.841 7.32523C470.797 7.32523 472.934 6.42208 475.09 4.25141C477.784 1.5386 480.884 0 484.166 0C487.449 0 490.55 1.5386 493.243 4.25141C495.399 6.42208 497.536 7.32523 499.492 7.32523C501.448 7.32523 503.585 6.42208 505.741 4.25141C508.434 1.53859 511.534 0 514.818 0C518.1 0 521.2 1.53859 523.894 4.25141C526.05 6.42208 528.187 7.32523 530.143 7.32523C532.098 7.32523 534.236 6.42208 536.391 4.25141C539.085 1.53859 542.186 0 545.469 0C548.751 0 551.852 1.53859 554.546 4.25141C556.7 6.42208 558.838 7.32523 560.794 7.32523C562.749 7.32523 564.887 6.42208 567.042 4.25141C569.736 1.5386 572.837 0 576.119 0C579.402 0 582.503 1.5386 585.197 4.25141C587.352 6.42208 589.49 7.32523 591.445 7.32523C593.401 7.32523 595.537 6.42208 597.693 4.25141L600.522 7.06155C597.828 9.77435 594.727 11.313 591.445 11.313C588.162 11.313 585.061 9.77435 582.368 7.06155C580.212 4.89087 578.074 3.98772 576.119 3.98772C574.163 3.98772 572.026 4.89087 569.871 7.06155C567.178 9.77435 564.077 11.313 560.794 11.313C557.512 11.313 554.411 9.77435 551.717 7.06155C549.561 4.89087 547.424 3.98772 545.469 3.98772C543.513 3.98772 541.375 4.89087 539.219 7.06155C536.526 9.77435 533.426 11.313 530.143 11.313C526.861 11.313 523.76 9.77435 521.066 7.06155C518.911 4.89087 516.773 3.98772 514.818 3.98772C512.862 3.98772 510.724 4.89087 508.569 7.06155C505.875 9.77435 502.775 11.313 499.492 11.313C496.209 11.313 493.109 9.77435 490.415 7.06155C488.26 4.89087 486.122 3.98772 484.166 3.98772C482.211 3.98772 480.074 4.89087 477.918 7.06155C475.224 9.77435 472.123 11.313 468.841 11.313C465.558 11.313 462.458 9.77435 459.764 7.06155C457.609 4.89087 455.471 3.98772 453.515 3.98772C451.56 3.98772 449.423 4.89087 447.267 7.06155C444.573 9.77435 441.472 11.313 438.19 11.313C434.907 11.313 431.807 9.77435 429.113 7.06155C426.957 4.89087 424.821 3.98772 422.865 3.98772C420.91 3.98772 418.772 4.89087 416.616 7.06155C413.923 9.77435 410.822 11.313 407.539 11.313C404.257 11.313 401.156 9.77435 398.462 7.06155C396.306 4.89087 394.169 3.98772 392.214 3.98772C390.258 3.98772 388.121 4.89087 385.966 7.06155C383.272 9.77435 380.171 11.313 376.888 11.313C373.606 11.313 370.505 9.77435 367.811 7.06155C365.656 4.89087 363.518 3.98772 361.563 3.98772C359.607 3.98772 357.47 4.89087 355.314 7.06155C352.62 9.77435 349.52 11.313 346.238 11.313C342.955 11.313 339.854 9.77435 337.16 7.06155C335.005 4.89087 332.867 3.98772 330.912 3.98772C328.956 3.98772 326.819 4.89087 324.663 7.06155C321.969 9.77435 318.869 11.313 315.586 11.313C312.303 11.313 309.203 9.77435 306.51 7.06155C304.354 4.89087 302.217 3.98772 300.261 3.98772C298.306 3.98772 296.168 4.89087 294.012 7.06155C291.319 9.77435 288.218 11.313 284.935 11.313C281.653 11.313 278.552 9.77435 275.858 7.06155C273.703 4.89087 271.566 3.98772 269.61 3.98772C267.655 3.98772 265.517 4.89087 263.362 7.06155C260.668 9.77435 257.567 11.313 254.284 11.313C251.002 11.313 247.901 9.77435 245.207 7.06155C243.052 4.89087 240.915 3.98772 238.959 3.98772C237.004 3.98772 234.866 4.89087 232.711 7.06155C230.017 9.77435 226.916 11.313 223.634 11.313C220.351 11.313 217.25 9.77435 214.556 7.06155C212.401 4.89087 210.263 3.98772 208.308 3.98772C206.352 3.98772 204.215 4.89087 202.06 7.06155C199.366 9.77435 196.265 11.313 192.983 11.313C189.7 11.313 186.599 9.77435 183.906 7.06155C181.75 4.89087 179.612 3.98772 177.657 3.98772C175.701 3.98772 173.564 4.89087 171.408 7.06155C168.715 9.77435 165.615 11.313 162.332 11.313C159.05 11.313 155.949 9.77435 153.255 7.06155C151.099 4.89087 148.962 3.98772 147.007 3.98772C145.051 3.98772 142.913 4.89087 140.758 7.06155C138.064 9.77435 134.964 11.313 131.68 11.313C128.398 11.313 125.298 9.77435 122.604 7.06155C120.449 4.89087 118.311 3.98772 116.355 3.98772C114.4 3.98772 112.262 4.89087 110.107 7.06155C107.413 9.77435 104.312 11.313 101.03 11.313C97.7473 11.313 94.6466 9.77435 91.9529 7.06155C89.7974 4.89087 87.6599 3.98772 85.7044 3.98772C83.7489 3.98772 81.6114 4.89087 79.456 7.06155C76.7622 9.77435 73.6615 11.313 70.3789 11.313C67.0963 11.313 63.9956 9.77435 61.3019 7.06155C59.1464 4.89087 57.0089 3.98772 55.0534 3.98772C53.0979 3.98772 50.9604 4.89087 48.805 7.06155C46.1112 9.77435 43.0106 11.313 39.728 11.313C36.4454 11.313 33.3447 9.77435 30.6509 7.06155C28.4955 4.89087 26.3581 3.98772 24.4025 3.98772C22.447 3.98772 20.3096 4.89087 18.1541 7.06155C15.4604 9.77435 12.3597 11.313 9.07705 11.313C5.79444 11.313 2.69377 9.77435 0 7.06155L2.82864 4.25141C4.98407 6.42208 7.12153 7.32523 9.07705 7.32523C11.0326 7.32523 13.17 6.42208 15.3254 4.25141C18.0193 1.53859 21.1199 0 24.4025 0Z"/>
</mask>
<path fill-rule="evenodd" clip-rule="evenodd" d="M24.4025 0C27.6852 0 30.7858 1.53859 33.4796 4.25141C35.635 6.42208 37.7725 7.32523 39.728 7.32523C41.6835 7.32523 43.821 6.42208 45.9764 4.25141C48.6702 1.53859 51.7709 0 55.0534 0C58.336 0 61.4367 1.53859 64.1305 4.25141C66.2859 6.42208 68.4234 7.32523 70.3789 7.32523C72.3344 7.32523 74.4719 6.42208 76.6274 4.25141C79.3211 1.53859 82.4218 0 85.7044 0C88.987 0 92.0877 1.53859 94.7815 4.25141C96.9369 6.42208 99.0743 7.32523 101.03 7.32523C102.986 7.32523 105.123 6.42208 107.279 4.25141C109.972 1.53859 113.072 0 116.355 0C119.637 0 122.738 1.53859 125.432 4.25141C127.588 6.42208 129.725 7.32523 131.68 7.32523C133.636 7.32523 135.774 6.42208 137.93 4.25141C140.623 1.53859 143.723 0 147.007 0C150.289 0 153.389 1.53859 156.083 4.25141C158.239 6.42208 160.376 7.32523 162.332 7.32523C164.287 7.32523 166.425 6.42208 168.58 4.25141C171.274 1.53859 174.375 0 177.657 0C180.94 0 184.041 1.53859 186.735 4.25141C188.889 6.42208 191.027 7.32523 192.983 7.32523C194.938 7.32523 197.075 6.42208 199.231 4.25141C201.925 1.53859 205.026 0 208.308 0C211.591 0 214.692 1.53859 217.385 4.25141C219.541 6.42208 221.678 7.32523 223.634 7.32523C225.589 7.32523 227.726 6.42208 229.882 4.25141C232.576 1.53859 235.677 0 238.959 0C242.242 0 245.343 1.53859 248.036 4.25141C250.192 6.42208 252.329 7.32523 254.284 7.32523C256.24 7.32523 258.378 6.42208 260.533 4.25141C263.226 1.53859 266.327 0 269.61 0C272.892 0 275.993 1.53859 278.687 4.25141C280.843 6.42208 282.98 7.32523 284.935 7.32523C286.891 7.32523 289.029 6.42208 291.184 4.25141C293.878 1.53859 296.978 0 300.261 0C303.543 0 306.644 1.53859 309.338 4.25141C311.493 6.42208 313.631 7.32523 315.586 7.32523C317.542 7.32523 319.68 6.42208 321.835 4.25141C324.529 1.53859 327.629 0 330.912 0C334.195 0 337.295 1.53859 339.989 4.25141C342.144 6.42208 344.282 7.32523 346.238 7.32523C348.193 7.32523 350.33 6.42208 352.486 4.25141C355.18 1.53859 358.281 0 361.563 0C364.846 0 367.947 1.53859 370.64 4.25141C372.795 6.42208 374.932 7.32523 376.888 7.32523C378.844 7.32523 380.981 6.42208 383.137 4.25141C385.83 1.53859 388.931 0 392.214 0C395.496 0 398.597 1.53859 401.291 4.25141C403.447 6.42208 405.583 7.32523 407.539 7.32523C409.494 7.32523 411.632 6.42208 413.787 4.25141C416.481 1.53859 419.582 0 422.865 0C426.147 0 429.248 1.53859 431.942 4.25141C434.097 6.42208 436.235 7.32523 438.19 7.32523C440.146 7.32523 442.284 6.42208 444.438 4.25141C447.132 1.53859 450.233 0 453.515 0C456.798 0 459.899 1.53859 462.593 4.25141C464.748 6.42208 466.886 7.32523 468.841 7.32523C470.797 7.32523 472.934 6.42208 475.09 4.25141C477.784 1.5386 480.884 0 484.166 0C487.449 0 490.55 1.5386 493.243 4.25141C495.399 6.42208 497.536 7.32523 499.492 7.32523C501.448 7.32523 503.585 6.42208 505.741 4.25141C508.434 1.53859 511.534 0 514.818 0C518.1 0 521.2 1.53859 523.894 4.25141C526.05 6.42208 528.187 7.32523 530.143 7.32523C532.098 7.32523 534.236 6.42208 536.391 4.25141C539.085 1.53859 542.186 0 545.469 0C548.751 0 551.852 1.53859 554.546 4.25141C556.7 6.42208 558.838 7.32523 560.794 7.32523C562.749 7.32523 564.887 6.42208 567.042 4.25141C569.736 1.5386 572.837 0 576.119 0C579.402 0 582.503 1.5386 585.197 4.25141C587.352 6.42208 589.49 7.32523 591.445 7.32523C593.401 7.32523 595.537 6.42208 597.693 4.25141L600.522 7.06155C597.828 9.77435 594.727 11.313 591.445 11.313C588.162 11.313 585.061 9.77435 582.368 7.06155C580.212 4.89087 578.074 3.98772 576.119 3.98772C574.163 3.98772 572.026 4.89087 569.871 7.06155C567.178 9.77435 564.077 11.313 560.794 11.313C557.512 11.313 554.411 9.77435 551.717 7.06155C549.561 4.89087 547.424 3.98772 545.469 3.98772C543.513 3.98772 541.375 4.89087 539.219 7.06155C536.526 9.77435 533.426 11.313 530.143 11.313C526.861 11.313 523.76 9.77435 521.066 7.06155C518.911 4.89087 516.773 3.98772 514.818 3.98772C512.862 3.98772 510.724 4.89087 508.569 7.06155C505.875 9.77435 502.775 11.313 499.492 11.313C496.209 11.313 493.109 9.77435 490.415 7.06155C488.26 4.89087 486.122 3.98772 484.166 3.98772C482.211 3.98772 480.074 4.89087 477.918 7.06155C475.224 9.77435 472.123 11.313 468.841 11.313C465.558 11.313 462.458 9.77435 459.764 7.06155C457.609 4.89087 455.471 3.98772 453.515 3.98772C451.56 3.98772 449.423 4.89087 447.267 7.06155C444.573 9.77435 441.472 11.313 438.19 11.313C434.907 11.313 431.807 9.77435 429.113 7.06155C426.957 4.89087 424.821 3.98772 422.865 3.98772C420.91 3.98772 418.772 4.89087 416.616 7.06155C413.923 9.77435 410.822 11.313 407.539 11.313C404.257 11.313 401.156 9.77435 398.462 7.06155C396.306 4.89087 394.169 3.98772 392.214 3.98772C390.258 3.98772 388.121 4.89087 385.966 7.06155C383.272 9.77435 380.171 11.313 376.888 11.313C373.606 11.313 370.505 9.77435 367.811 7.06155C365.656 4.89087 363.518 3.98772 361.563 3.98772C359.607 3.98772 357.47 4.89087 355.314 7.06155C352.62 9.77435 349.52 11.313 346.238 11.313C342.955 11.313 339.854 9.77435 337.16 7.06155C335.005 4.89087 332.867 3.98772 330.912 3.98772C328.956 3.98772 326.819 4.89087 324.663 7.06155C321.969 9.77435 318.869 11.313 315.586 11.313C312.303 11.313 309.203 9.77435 306.51 7.06155C304.354 4.89087 302.217 3.98772 300.261 3.98772C298.306 3.98772 296.168 4.89087 294.012 7.06155C291.319 9.77435 288.218 11.313 284.935 11.313C281.653 11.313 278.552 9.77435 275.858 7.06155C273.703 4.89087 271.566 3.98772 269.61 3.98772C267.655 3.98772 265.517 4.89087 263.362 7.06155C260.668 9.77435 257.567 11.313 254.284 11.313C251.002 11.313 247.901 9.77435 245.207 7.06155C243.052 4.89087 240.915 3.98772 238.959 3.98772C237.004 3.98772 234.866 4.89087 232.711 7.06155C230.017 9.77435 226.916 11.313 223.634 11.313C220.351 11.313 217.25 9.77435 214.556 7.06155C212.401 4.89087 210.263 3.98772 208.308 3.98772C206.352 3.98772 204.215 4.89087 202.06 7.06155C199.366 9.77435 196.265 11.313 192.983 11.313C189.7 11.313 186.599 9.77435 183.906 7.06155C181.75 4.89087 179.612 3.98772 177.657 3.98772C175.701 3.98772 173.564 4.89087 171.408 7.06155C168.715 9.77435 165.615 11.313 162.332 11.313C159.05 11.313 155.949 9.77435 153.255 7.06155C151.099 4.89087 148.962 3.98772 147.007 3.98772C145.051 3.98772 142.913 4.89087 140.758 7.06155C138.064 9.77435 134.964 11.313 131.68 11.313C128.398 11.313 125.298 9.77435 122.604 7.06155C120.449 4.89087 118.311 3.98772 116.355 3.98772C114.4 3.98772 112.262 4.89087 110.107 7.06155C107.413 9.77435 104.312 11.313 101.03 11.313C97.7473 11.313 94.6466 9.77435 91.9529 7.06155C89.7974 4.89087 87.6599 3.98772 85.7044 3.98772C83.7489 3.98772 81.6114 4.89087 79.456 7.06155C76.7622 9.77435 73.6615 11.313 70.3789 11.313C67.0963 11.313 63.9956 9.77435 61.3019 7.06155C59.1464 4.89087 57.0089 3.98772 55.0534 3.98772C53.0979 3.98772 50.9604 4.89087 48.805 7.06155C46.1112 9.77435 43.0106 11.313 39.728 11.313C36.4454 11.313 33.3447 9.77435 30.6509 7.06155C28.4955 4.89087 26.3581 3.98772 24.4025 3.98772C22.447 3.98772 20.3096 4.89087 18.1541 7.06155C15.4604 9.77435 12.3597 11.313 9.07705 11.313C5.79444 11.313 2.69377 9.77435 0 7.06155L2.82864 4.25141C4.98407 6.42208 7.12153 7.32523 9.07705 7.32523C11.0326 7.32523 13.17 6.42208 15.3254 4.25141C18.0193 1.53859 21.1199 0 24.4025 0Z" stroke="#3B82F6" stroke-width="4" mask="url(#path-1-inside-1_16_77)"/>
</svg>
