<svg width="13" height="13" viewBox="0 0 13 13" fill="none" xmlns="http://www.w3.org/2000/svg">
<path d="M7.24193 1.3616L8.45347 4.25454C8.58809 4.52365 8.79001 4.65821 9.05924 4.72548L12.0208 4.92732C12.6939 4.9946 12.9631 5.80193 12.4246 6.27287L10.2035 8.29121C10.0015 8.49304 9.93424 8.76215 10.0015 9.03126L10.6746 12.0588C10.8092 12.7315 10.1362 13.2025 9.5977 12.8661L6.9727 11.2514C6.77078 11.1169 6.43424 11.1169 6.23232 11.2514L3.60732 12.8661C3.06886 13.2025 2.39578 12.7315 2.53039 12.0588L3.20347 9.03126C3.27078 8.76215 3.20347 8.49304 3.00155 8.29121L0.713087 6.27287C0.241933 5.86921 0.511164 4.9946 1.11693 4.9946L4.14578 4.72548C4.41501 4.72548 4.61693 4.52365 4.75155 4.25454L5.96309 1.3616C6.16501 0.756096 7.04001 0.756096 7.24193 1.3616Z" fill="#FEC600"/>
</svg>
